<mxfile host="app.diagrams.net" modified="2021-08-29T13:11:20.251Z" agent="5.0 (Macintosh; Intel Mac OS X 10_14_3) AppleWebKit/537.36 (KHTML, like Gecko) Chrome/92.0.4515.159 Safari/537.36" etag="h2do8iLUzLclKTMTJNP3" version="15.0.2" type="github">
  <diagram id="3228e29e-7158-1315-38df-8450db1d8a1d" name="Page-1">
    <mxGraphModel dx="351" dy="-181" grid="0" gridSize="10" guides="1" tooltips="1" connect="1" arrows="1" fold="1" page="1" pageScale="1" pageWidth="800" pageHeight="750" background="#EFF1F3" math="0" shadow="0">
      <root>
        <mxCell id="0" />
        <mxCell id="1" parent="0" />
        <mxCell id="a9wMzhSq-2tXYps5j9kw-9" value="" style="rounded=1;whiteSpace=wrap;html=1;fillColor=none;dashed=1;strokeWidth=3;" vertex="1" parent="1">
          <mxGeometry x="269" y="1113" width="267" height="134" as="geometry" />
        </mxCell>
        <mxCell id="_KJd5dzx4qh3lxpyMWcO-2" value="" style="fontColor=#0066CC;verticalAlign=top;verticalLabelPosition=bottom;labelPosition=center;align=center;html=1;outlineConnect=0;gradientColor=none;gradientDirection=north;strokeWidth=2;shape=mxgraph.networks.pc;fillColor=#67AB9F;fontSize=30;" parent="1" vertex="1">
          <mxGeometry x="209.27" y="834" width="74.65" height="54" as="geometry" />
        </mxCell>
        <mxCell id="T-5VQnCJckOgUX1Wp16H-28" value="客户端" style="text;html=1;strokeColor=none;fillColor=none;align=center;verticalAlign=middle;whiteSpace=wrap;rounded=0;fontSize=22;" parent="1" vertex="1">
          <mxGeometry x="157.08999999999997" y="902" width="179" height="20" as="geometry" />
        </mxCell>
        <mxCell id="aH1-eks404bDhsACtXEq-2" value="" style="fontColor=#0066CC;verticalAlign=top;verticalLabelPosition=bottom;labelPosition=center;align=center;html=1;outlineConnect=0;gradientColor=none;gradientDirection=north;strokeWidth=2;shape=mxgraph.networks.server;fillColor=#4A919B;" parent="1" vertex="1">
          <mxGeometry x="541.27" y="824" width="51.5" height="64" as="geometry" />
        </mxCell>
        <mxCell id="aH1-eks404bDhsACtXEq-3" value="服务端" style="text;html=1;strokeColor=none;fillColor=none;align=center;verticalAlign=middle;whiteSpace=wrap;rounded=0;fontSize=22;" parent="1" vertex="1">
          <mxGeometry x="480.27" y="902" width="179" height="20" as="geometry" />
        </mxCell>
        <mxCell id="aH1-eks404bDhsACtXEq-4" value="&lt;font style=&quot;font-size: 30px&quot;&gt;RST丢失&lt;/font&gt;" style="text;html=1;strokeColor=none;fillColor=none;align=center;verticalAlign=middle;whiteSpace=wrap;rounded=0;" parent="1" vertex="1">
          <mxGeometry x="201.5" y="781" width="395" height="28" as="geometry" />
        </mxCell>
        <mxCell id="aH1-eks404bDhsACtXEq-7" value="" style="endArrow=none;html=1;strokeWidth=5;" parent="1" edge="1">
          <mxGeometry width="50" height="50" relative="1" as="geometry">
            <mxPoint x="258" y="1399" as="sourcePoint" />
            <mxPoint x="258" y="965" as="targetPoint" />
          </mxGeometry>
        </mxCell>
        <mxCell id="aH1-eks404bDhsACtXEq-10" value="" style="endArrow=classic;html=1;strokeWidth=5;fontSize=20;strokeColor=#4A919B;" parent="1" edge="1">
          <mxGeometry width="50" height="50" relative="1" as="geometry">
            <mxPoint x="278.5" y="997" as="sourcePoint" />
            <mxPoint x="526" y="997" as="targetPoint" />
          </mxGeometry>
        </mxCell>
        <mxCell id="aH1-eks404bDhsACtXEq-11" value="send( ) data" style="text;html=1;fillColor=none;align=center;verticalAlign=middle;whiteSpace=wrap;rounded=0;fontSize=20;fontColor=#4A919B;" parent="1" vertex="1">
          <mxGeometry x="317" y="971" width="146.5" height="21" as="geometry" />
        </mxCell>
        <mxCell id="aH1-eks404bDhsACtXEq-12" value="" style="endArrow=none;html=1;strokeWidth=5;startArrow=classic;startFill=1;endFill=0;fontColor=#4A919B;strokeColor=#4A919B;" parent="1" edge="1">
          <mxGeometry width="50" height="50" relative="1" as="geometry">
            <mxPoint x="273" y="1056" as="sourcePoint" />
            <mxPoint x="531" y="1056" as="targetPoint" />
          </mxGeometry>
        </mxCell>
        <mxCell id="aH1-eks404bDhsACtXEq-17" value="&lt;span style=&quot;font-family: &amp;quot;open sans&amp;quot; , &amp;quot;clear sans&amp;quot; , &amp;quot;helvetica neue&amp;quot; , &amp;quot;helvetica&amp;quot; , &amp;quot;arial&amp;quot; , sans-serif&quot;&gt;&lt;font style=&quot;font-size: 12px&quot;&gt;ESTABLISHED&lt;/font&gt;&lt;/span&gt;" style="rounded=1;whiteSpace=wrap;html=1;dashed=1;strokeWidth=3;strokeColor=none;fillColor=#535E80;fontColor=#FFFFFF;" parent="1" vertex="1">
          <mxGeometry x="561.5" y="959" width="89.5" height="132" as="geometry" />
        </mxCell>
        <mxCell id="aH1-eks404bDhsACtXEq-22" value="ACK" style="text;html=1;strokeColor=none;fillColor=none;align=center;verticalAlign=middle;whiteSpace=wrap;rounded=0;fontSize=20;rotation=0;fontColor=#4A919B;" parent="1" vertex="1">
          <mxGeometry x="351" y="1025" width="87" height="32" as="geometry" />
        </mxCell>
        <mxCell id="YXoqQ_mGJv7HDvLP6CB5-1" value="" style="endArrow=none;html=1;strokeWidth=5;" parent="1" edge="1">
          <mxGeometry width="50" height="50" relative="1" as="geometry">
            <mxPoint x="544" y="1397" as="sourcePoint" />
            <mxPoint x="543.5000000000001" y="965" as="targetPoint" />
          </mxGeometry>
        </mxCell>
        <mxCell id="CZwPZS3a3ZRwMsVz8uld-6" value="&lt;font color=&quot;#ffffff&quot;&gt;CLOSED&lt;/font&gt;" style="rounded=1;whiteSpace=wrap;html=1;strokeWidth=3;strokeColor=none;fillColor=#808080;" parent="1" vertex="1">
          <mxGeometry x="562.5" y="1104" width="89" height="347" as="geometry" />
        </mxCell>
        <mxCell id="620c4s5pLBTuJ2dwkKwi-3" value="&lt;span style=&quot;font-family: &amp;#34;open sans&amp;#34; , &amp;#34;clear sans&amp;#34; , &amp;#34;helvetica neue&amp;#34; , &amp;#34;helvetica&amp;#34; , &amp;#34;arial&amp;#34; , sans-serif&quot;&gt;&lt;font style=&quot;font-size: 12px&quot;&gt;ESTABLISHED&lt;br&gt;&lt;/font&gt;&lt;/span&gt;" style="rounded=1;whiteSpace=wrap;html=1;dashed=1;strokeWidth=3;fillColor=#535E80;strokeColor=none;fontColor=#FFFFFF;" parent="1" vertex="1">
          <mxGeometry x="157.09" y="965" width="89" height="382" as="geometry" />
        </mxCell>
        <mxCell id="RZoSx3gHirty8Vm16f_1-15" value="" style="fontColor=#0066CC;verticalAlign=top;verticalLabelPosition=bottom;labelPosition=center;align=center;html=1;outlineConnect=0;gradientColor=none;gradientDirection=north;strokeWidth=2;shape=mxgraph.networks.server;fillColor=#4A919B;" parent="1" vertex="1">
          <mxGeometry x="679" y="1061" width="51.5" height="64" as="geometry" />
        </mxCell>
        <mxCell id="RZoSx3gHirty8Vm16f_1-16" value="" style="html=1;verticalLabelPosition=bottom;align=center;labelBackgroundColor=#ffffff;verticalAlign=top;strokeWidth=2;shadow=0;dashed=0;shape=mxgraph.ios7.icons.flash;strokeColor=none;fillColor=#EA6B66;" parent="1" vertex="1">
          <mxGeometry x="675.25" y="1061" width="59" height="70" as="geometry" />
        </mxCell>
        <mxCell id="RZoSx3gHirty8Vm16f_1-17" value="&lt;font style=&quot;font-size: 20px&quot;&gt;1. 程序崩溃&lt;/font&gt;" style="text;html=1;strokeColor=none;fillColor=none;align=center;verticalAlign=middle;whiteSpace=wrap;rounded=0;" parent="1" vertex="1">
          <mxGeometry x="659.27" y="1133" width="122.73" height="33" as="geometry" />
        </mxCell>
        <mxCell id="RZoSx3gHirty8Vm16f_1-18" value="" style="endArrow=classic;html=1;strokeWidth=5;fontSize=20;fontColor=#4A919B;strokeColor=#4A919B;" parent="1" edge="1">
          <mxGeometry width="50" height="50" relative="1" as="geometry">
            <mxPoint x="280.5" y="1155" as="sourcePoint" />
            <mxPoint x="528" y="1155" as="targetPoint" />
          </mxGeometry>
        </mxCell>
        <mxCell id="RZoSx3gHirty8Vm16f_1-19" value="send() data" style="text;html=1;strokeColor=none;fillColor=none;align=center;verticalAlign=middle;whiteSpace=wrap;rounded=0;fontSize=20;fontColor=#4A919B;" parent="1" vertex="1">
          <mxGeometry x="319" y="1129" width="146.5" height="21" as="geometry" />
        </mxCell>
        <mxCell id="RZoSx3gHirty8Vm16f_1-20" value="" style="endArrow=none;html=1;strokeWidth=5;startArrow=classic;startFill=1;endFill=0;fontColor=#4A919B;strokeColor=#EA6B66;" parent="1" edge="1">
          <mxGeometry width="50" height="50" relative="1" as="geometry">
            <mxPoint x="372" y="1204" as="sourcePoint" />
            <mxPoint x="524" y="1204" as="targetPoint" />
          </mxGeometry>
        </mxCell>
        <mxCell id="RZoSx3gHirty8Vm16f_1-21" value="RST" style="text;html=1;strokeColor=none;fillColor=none;align=center;verticalAlign=middle;whiteSpace=wrap;rounded=0;fontSize=20;rotation=0;fontColor=#EA6B66;" parent="1" vertex="1">
          <mxGeometry x="379" y="1172" width="87" height="32" as="geometry" />
        </mxCell>
        <mxCell id="RZoSx3gHirty8Vm16f_1-22" value="&lt;font color=&quot;#ffffff&quot;&gt;CLOSED&lt;/font&gt;" style="rounded=1;whiteSpace=wrap;html=1;strokeWidth=3;strokeColor=none;fillColor=#808080;" parent="1" vertex="1">
          <mxGeometry x="157.09" y="1356" width="89" height="88" as="geometry" />
        </mxCell>
        <mxCell id="RZoSx3gHirty8Vm16f_1-23" value="&lt;font style=&quot;font-size: 20px&quot;&gt;2.收到RST&lt;br&gt;关闭连接&lt;br&gt;&lt;/font&gt;" style="text;html=1;strokeColor=none;fillColor=none;align=center;verticalAlign=middle;whiteSpace=wrap;rounded=0;" parent="1" vertex="1">
          <mxGeometry x="19" y="1307" width="119" height="33" as="geometry" />
        </mxCell>
        <mxCell id="a9wMzhSq-2tXYps5j9kw-1" value="&lt;font style=&quot;font-size: 60px&quot; color=&quot;#ea6b66&quot;&gt;×&lt;/font&gt;" style="text;html=1;strokeColor=none;fillColor=none;align=center;verticalAlign=middle;whiteSpace=wrap;rounded=0;" vertex="1" parent="1">
          <mxGeometry x="332" y="1178" width="40" height="20" as="geometry" />
        </mxCell>
        <mxCell id="a9wMzhSq-2tXYps5j9kw-2" value="&lt;font style=&quot;font-size: 20px&quot; color=&quot;#ea6b66&quot;&gt;丢失&lt;/font&gt;" style="text;html=1;strokeColor=none;fillColor=none;align=center;verticalAlign=middle;whiteSpace=wrap;rounded=0;" vertex="1" parent="1">
          <mxGeometry x="322" y="1210" width="60" height="24" as="geometry" />
        </mxCell>
        <mxCell id="a9wMzhSq-2tXYps5j9kw-3" value="" style="endArrow=classic;html=1;strokeWidth=5;fontSize=20;fontColor=#4A919B;strokeColor=#4A919B;" edge="1" parent="1">
          <mxGeometry width="50" height="50" relative="1" as="geometry">
            <mxPoint x="275.25" y="1302" as="sourcePoint" />
            <mxPoint x="522.75" y="1302" as="targetPoint" />
          </mxGeometry>
        </mxCell>
        <mxCell id="a9wMzhSq-2tXYps5j9kw-4" value="重发 send() data" style="text;html=1;strokeColor=none;fillColor=none;align=center;verticalAlign=middle;whiteSpace=wrap;rounded=0;fontSize=20;fontColor=#4A919B;" vertex="1" parent="1">
          <mxGeometry x="313.75" y="1276" width="174.25" height="21" as="geometry" />
        </mxCell>
        <mxCell id="a9wMzhSq-2tXYps5j9kw-5" value="" style="endArrow=none;html=1;strokeWidth=5;startArrow=classic;startFill=1;endFill=0;fontColor=#4A919B;strokeColor=#EA6B66;" edge="1" parent="1">
          <mxGeometry width="50" height="50" relative="1" as="geometry">
            <mxPoint x="274.62" y="1351" as="sourcePoint" />
            <mxPoint x="527.12" y="1351" as="targetPoint" />
          </mxGeometry>
        </mxCell>
        <mxCell id="a9wMzhSq-2tXYps5j9kw-6" value="RST" style="text;html=1;strokeColor=none;fillColor=none;align=center;verticalAlign=middle;whiteSpace=wrap;rounded=0;fontSize=20;rotation=0;fontColor=#EA6B66;" vertex="1" parent="1">
          <mxGeometry x="344" y="1319" width="87" height="32" as="geometry" />
        </mxCell>
      </root>
    </mxGraphModel>
  </diagram>
</mxfile>
